<svg width="23" height="21" viewBox="0 0 23 21" fill="none" xmlns="http://www.w3.org/2000/svg">
<path d="M20.0676 2.63393C19.5493 2.11566 18.934 1.7046 18.2568 1.42424C17.5796 1.14389 16.8537 0.999725 16.1208 1C15.3878 1.00028 14.6621 1.14498 13.9851 1.42585C13.3081 1.70672 12.6931 2.11824 12.1752 2.6369L11.4992 3.32115L10.8288 2.63838L10.8245 2.63402C10.3065 2.11599 9.69147 1.70507 9.01464 1.42472C8.33781 1.14436 7.61238 1.00007 6.87979 1.00007C6.14719 1.00007 5.42176 1.14436 4.74493 1.42472C4.0681 1.70507 3.45311 2.11599 2.93509 2.63402L2.63393 2.93518C1.58774 3.98137 1 5.40031 1 6.87985C1 8.35939 1.58774 9.77833 2.63393 10.8245L10.5823 18.7728L11.4799 19.7132L11.5013 19.6918L11.5245 19.715L12.3655 18.8277L20.3687 10.8244C21.4133 9.77737 22 8.35874 22 6.87972C22 5.4007 21.4133 3.98207 20.3687 2.93505L20.0676 2.63393ZM19.3823 9.83824L11.5013 17.7195L3.62004 9.83824C2.8354 9.0536 2.3946 7.9894 2.3946 6.87974C2.3946 5.77009 2.8354 4.70589 3.62004 3.92124L3.92124 3.62009C4.7055 2.83583 5.76906 2.39506 6.87817 2.39464C7.98728 2.39422 9.05117 2.8342 9.83602 3.61786L11.4962 5.30832L13.1643 3.62009C13.5528 3.23157 14.0141 2.92337 14.5217 2.71311C15.0293 2.50284 15.5734 2.39462 16.1228 2.39462C16.6723 2.39462 17.2164 2.50284 17.724 2.71311C18.2316 2.92337 18.6928 3.23157 19.0814 3.62009L19.3825 3.9212C20.166 4.70649 20.6059 5.77048 20.6059 6.87976C20.6059 7.98903 20.1658 9.053 19.3823 9.83824Z" fill="#9B9B9B" stroke="#9B9B9B"/>
</svg>
