<svg width="32" height="32" viewBox="0 0 32 32" fill="none" xmlns="http://www.w3.org/2000/svg">
<rect x="0.5" y="0.5" width="31" height="31" rx="6.5" fill="white" stroke="#F8F8F8"/>
<path d="M21.226 11.0477C20.8937 10.7154 20.4992 10.4518 20.065 10.272C19.6307 10.0923 19.1654 9.99982 18.6954 10C18.2254 10.0002 17.7601 10.093 17.326 10.2731C16.8919 10.4531 16.4976 10.717 16.1655 11.0496L15.7321 11.4883L15.3022 11.0505L15.2994 11.0477C14.9673 10.7156 14.5729 10.4521 14.139 10.2723C13.705 10.0926 13.2398 10 12.7701 10C12.3004 10 11.8352 10.0926 11.4012 10.2723C10.9673 10.4521 10.5729 10.7156 10.2408 11.0477L10.0477 11.2408C9.37686 11.9116 9 12.8215 9 13.7701C9 14.7188 9.37686 15.6286 10.0477 16.2994L15.1441 21.3959L15.7197 21.9989L15.7334 21.9851L15.7483 22L16.2875 21.4311L21.4191 16.2994C22.089 15.628 22.4651 14.7184 22.4651 13.7701C22.4651 12.8217 22.089 11.9121 21.4191 11.2407L21.226 11.0477ZM20.7867 15.667L15.7334 20.7205L10.68 15.667C10.1769 15.1639 9.89421 14.4816 9.89421 13.7701C9.89421 13.0586 10.1769 12.3762 10.68 11.8731L10.8731 11.68C11.376 11.1771 12.0579 10.8945 12.7691 10.8942C13.4802 10.894 14.1624 11.1761 14.6656 11.6786L15.7301 12.7625L16.7997 11.68C17.0488 11.4309 17.3446 11.2333 17.6701 11.0984C17.9955 10.9636 18.3444 10.8942 18.6967 10.8942C19.049 10.8942 19.3979 10.9636 19.7234 11.0984C20.0488 11.2333 20.3446 11.4309 20.5937 11.68L20.7868 11.8731C21.2892 12.3766 21.5713 13.0588 21.5712 13.7701C21.5712 14.4813 21.2891 15.1636 20.7867 15.667Z" fill="#ECECEC"/>
</svg>
